<svg xmlns="http://www.w3.org/2000/svg" xmlns:xlink="http://www.w3.org/1999/xlink" width="500" zoomAndPan="magnify" viewBox="0 0 375 374.999991" height="500" preserveAspectRatio="xMidYMid meet" version="1.0"><defs><filter x="0%" y="0%" width="100%" height="100%" id="143dbaee73"><feColorMatrix values="0 0 0 0 1 0 0 0 0 1 0 0 0 0 1 0 0 0 1 0" color-interpolation-filters="sRGB"/></filter><mask id="7605fcba7b"><g filter="url(#143dbaee73)"><rect x="-37.5" width="450" fill="#000000" y="-37.499999" height="449.999989" fill-opacity="0.5"/></g></mask><clipPath id="bb29182e49"><path d="M 140 0.121094 L 204.839844 0.121094 L 204.839844 72 L 140 72 Z M 140 0.121094 " clip-rule="nonzero"/></clipPath><clipPath id="5e57c75b00"><path d="M 1 7 L 68 7 L 68 80.519531 L 1 80.519531 Z M 1 7 " clip-rule="nonzero"/></clipPath><clipPath id="0ee5eddb6f"><rect x="0" width="205" y="0" height="81"/></clipPath><mask id="801200001b"><g filter="url(#143dbaee73)"><rect x="-37.5" width="450" fill="#000000" y="-37.499999" height="449.999989" fill-opacity="0.5"/></g></mask><clipPath id="6032071a17"><path d="M 1 7 L 61 7 L 61 72.441406 L 1 72.441406 Z M 1 7 " clip-rule="nonzero"/></clipPath><clipPath id="907bd70af2"><rect x="0" width="183" y="0" height="73"/></clipPath></defs><rect x="-37.5" width="450" fill="#ffffff" y="-37.499999" height="449.999989" fill-opacity="1"/><rect x="-37.5" width="450" fill="#ffffff" y="-37.499999" height="449.999989" fill-opacity="1"/><path fill="#000000" d="M 190.816406 152.714844 C 190.816406 152.714844 175.902344 27.367188 87.65625 58.828125 C 12.261719 85.71875 62.835938 181.480469 62.835938 181.480469 C 62.835938 181.480469 31 220.589844 40.148438 270.667969 C 49.300781 320.742188 109.59375 347.628906 214.945312 340.234375 C 304.570312 333.96875 347.6875 302.441406 348.003906 247.726562 C 348.316406 202.226562 312.339844 168.132812 312.339844 168.132812 C 312.339844 168.132812 362.730469 60.019531 272.167969 44.855469 C 188.496094 30.816406 190.816406 152.714844 190.816406 152.714844 Z M 190.816406 152.714844 " fill-opacity="1" fill-rule="nonzero"/><path fill="#000000" d="M 165.808594 281.320312 C 165.808594 282.320312 165.761719 283.3125 165.664062 284.304688 C 165.566406 285.300781 165.417969 286.285156 165.226562 287.261719 C 165.03125 288.242188 164.789062 289.207031 164.5 290.164062 C 164.207031 291.117188 163.875 292.054688 163.492188 292.976562 C 163.109375 293.898438 162.683594 294.800781 162.214844 295.679688 C 161.742188 296.558594 161.230469 297.414062 160.675781 298.242188 C 160.121094 299.074219 159.527344 299.875 158.894531 300.644531 C 158.261719 301.414062 157.59375 302.152344 156.890625 302.859375 C 156.183594 303.5625 155.445312 304.234375 154.675781 304.867188 C 153.902344 305.5 153.101562 306.09375 152.273438 306.648438 C 151.445312 307.203125 150.589844 307.714844 149.710938 308.183594 C 148.828125 308.652344 147.929688 309.078125 147.007812 309.460938 C 146.085938 309.84375 145.148438 310.179688 144.191406 310.46875 C 143.238281 310.757812 142.269531 311 141.292969 311.195312 C 140.316406 311.390625 139.328125 311.535156 138.335938 311.632812 C 137.34375 311.730469 136.347656 311.78125 135.351562 311.78125 C 134.351562 311.78125 133.359375 311.730469 132.363281 311.632812 C 131.371094 311.535156 130.386719 311.390625 129.410156 311.195312 C 128.429688 311 127.464844 310.757812 126.507812 310.46875 C 125.554688 310.179688 124.617188 309.84375 123.695312 309.460938 C 122.773438 309.078125 121.871094 308.652344 120.992188 308.183594 C 120.113281 307.714844 119.257812 307.203125 118.429688 306.648438 C 117.597656 306.09375 116.796875 305.5 116.027344 304.867188 C 115.257812 304.234375 114.519531 303.5625 113.8125 302.859375 C 113.105469 302.152344 112.4375 301.414062 111.804688 300.644531 C 111.171875 299.875 110.578125 299.074219 110.023438 298.242188 C 109.46875 297.414062 108.957031 296.558594 108.488281 295.679688 C 108.019531 294.800781 107.589844 293.898438 107.210938 292.976562 C 106.828125 292.054688 106.492188 291.117188 106.203125 290.164062 C 105.914062 289.207031 105.671875 288.242188 105.476562 287.261719 C 105.28125 286.285156 105.136719 285.300781 105.039062 284.304688 C 104.941406 283.3125 104.890625 282.320312 104.890625 281.320312 C 104.890625 280.324219 104.941406 279.328125 105.039062 278.335938 C 105.136719 277.34375 105.28125 276.355469 105.476562 275.378906 C 105.671875 274.398438 105.914062 273.433594 106.203125 272.480469 C 106.492188 271.523438 106.828125 270.585938 107.210938 269.664062 C 107.589844 268.742188 108.019531 267.84375 108.488281 266.960938 C 108.957031 266.082031 109.46875 265.226562 110.023438 264.398438 C 110.578125 263.570312 111.171875 262.769531 111.804688 261.996094 C 112.4375 261.226562 113.105469 260.488281 113.8125 259.78125 C 114.519531 259.078125 115.257812 258.410156 116.027344 257.777344 C 116.796875 257.144531 117.597656 256.550781 118.429688 255.996094 C 119.257812 255.441406 120.113281 254.929688 120.992188 254.457031 C 121.871094 253.988281 122.773438 253.5625 123.695312 253.179688 C 124.617188 252.796875 125.554688 252.460938 126.507812 252.171875 C 127.464844 251.882812 128.429688 251.640625 129.410156 251.445312 C 130.386719 251.253906 131.371094 251.105469 132.363281 251.007812 C 133.359375 250.910156 134.351562 250.863281 135.351562 250.863281 C 136.347656 250.863281 137.34375 250.910156 138.335938 251.007812 C 139.328125 251.105469 140.316406 251.253906 141.292969 251.445312 C 142.269531 251.640625 143.238281 251.882812 144.191406 252.171875 C 145.148438 252.460938 146.085938 252.796875 147.007812 253.179688 C 147.929688 253.5625 148.828125 253.988281 149.710938 254.457031 C 150.589844 254.929688 151.445312 255.441406 152.273438 255.996094 C 153.101562 256.550781 153.902344 257.144531 154.675781 257.777344 C 155.445312 258.410156 156.183594 259.078125 156.890625 259.78125 C 157.59375 260.488281 158.261719 261.226562 158.894531 261.996094 C 159.527344 262.769531 160.121094 263.570312 160.675781 264.398438 C 161.230469 265.226562 161.742188 266.082031 162.214844 266.960938 C 162.683594 267.84375 163.109375 268.742188 163.492188 269.664062 C 163.875 270.585938 164.207031 271.523438 164.5 272.480469 C 164.789062 273.433594 165.03125 274.398438 165.226562 275.378906 C 165.417969 276.355469 165.566406 277.34375 165.664062 278.335938 C 165.761719 279.328125 165.808594 280.324219 165.808594 281.320312 Z M 165.808594 281.320312 " fill-opacity="1" fill-rule="nonzero"/><path fill="#000000" d="M 297.738281 275.179688 C 297.738281 276.175781 297.6875 277.171875 297.589844 278.164062 C 297.492188 279.15625 297.347656 280.144531 297.152344 281.121094 C 296.957031 282.101562 296.714844 283.066406 296.425781 284.019531 C 296.136719 284.976562 295.800781 285.914062 295.417969 286.835938 C 295.039062 287.757812 294.613281 288.65625 294.140625 289.539062 C 293.671875 290.417969 293.160156 291.273438 292.605469 292.101562 C 292.050781 292.929688 291.457031 293.730469 290.824219 294.503906 C 290.191406 295.273438 289.523438 296.011719 288.816406 296.71875 C 288.109375 297.421875 287.371094 298.089844 286.601562 298.722656 C 285.832031 299.355469 285.03125 299.949219 284.199219 300.503906 C 283.371094 301.058594 282.515625 301.570312 281.636719 302.042969 C 280.757812 302.511719 279.855469 302.9375 278.933594 303.320312 C 278.011719 303.703125 277.074219 304.039062 276.121094 304.328125 C 275.164062 304.617188 274.199219 304.859375 273.222656 305.054688 C 272.242188 305.246094 271.257812 305.394531 270.265625 305.492188 C 269.269531 305.589844 268.277344 305.636719 267.277344 305.636719 C 266.28125 305.636719 265.285156 305.589844 264.292969 305.492188 C 263.300781 305.394531 262.316406 305.246094 261.335938 305.054688 C 260.359375 304.859375 259.390625 304.617188 258.4375 304.328125 C 257.480469 304.039062 256.542969 303.703125 255.621094 303.320312 C 254.699219 302.9375 253.800781 302.511719 252.921875 302.042969 C 252.039062 301.570312 251.1875 301.058594 250.355469 300.503906 C 249.527344 299.949219 248.726562 299.355469 247.957031 298.722656 C 247.183594 298.089844 246.445312 297.421875 245.742188 296.71875 C 245.035156 296.011719 244.367188 295.273438 243.734375 294.503906 C 243.101562 293.730469 242.507812 292.929688 241.953125 292.101562 C 241.398438 291.273438 240.886719 290.417969 240.414062 289.539062 C 239.945312 288.65625 239.519531 287.757812 239.136719 286.835938 C 238.757812 285.914062 238.421875 284.976562 238.128906 284.019531 C 237.839844 283.066406 237.597656 282.101562 237.40625 281.121094 C 237.210938 280.144531 237.0625 279.15625 236.964844 278.164062 C 236.867188 277.171875 236.820312 276.175781 236.820312 275.179688 C 236.820312 274.179688 236.867188 273.1875 236.964844 272.195312 C 237.0625 271.199219 237.210938 270.214844 237.40625 269.238281 C 237.597656 268.257812 237.839844 267.292969 238.128906 266.335938 C 238.421875 265.382812 238.757812 264.445312 239.136719 263.523438 C 239.519531 262.601562 239.945312 261.699219 240.414062 260.820312 C 240.886719 259.941406 241.398438 259.085938 241.953125 258.257812 C 242.507812 257.425781 243.101562 256.628906 243.734375 255.855469 C 244.367188 255.085938 245.035156 254.347656 245.742188 253.640625 C 246.445312 252.9375 247.183594 252.265625 247.957031 251.632812 C 248.726562 251 249.527344 250.40625 250.355469 249.851562 C 251.1875 249.296875 252.039062 248.785156 252.921875 248.316406 C 253.800781 247.847656 254.699219 247.421875 255.621094 247.039062 C 256.542969 246.65625 257.480469 246.320312 258.4375 246.03125 C 259.390625 245.742188 260.359375 245.5 261.335938 245.304688 C 262.316406 245.109375 263.300781 244.964844 264.292969 244.867188 C 265.285156 244.769531 266.28125 244.71875 267.277344 244.71875 C 268.277344 244.71875 269.269531 244.769531 270.265625 244.867188 C 271.257812 244.964844 272.242188 245.109375 273.222656 245.304688 C 274.199219 245.5 275.164062 245.742188 276.121094 246.03125 C 277.074219 246.320312 278.011719 246.65625 278.933594 247.039062 C 279.855469 247.421875 280.757812 247.847656 281.636719 248.316406 C 282.515625 248.785156 283.371094 249.296875 284.199219 249.851562 C 285.03125 250.40625 285.832031 251 286.601562 251.632812 C 287.371094 252.265625 288.109375 252.9375 288.816406 253.640625 C 289.523438 254.347656 290.191406 255.085938 290.824219 255.855469 C 291.457031 256.628906 292.050781 257.425781 292.605469 258.257812 C 293.160156 259.085938 293.671875 259.941406 294.140625 260.820312 C 294.613281 261.699219 295.039062 262.601562 295.417969 263.523438 C 295.800781 264.445312 296.136719 265.382812 296.425781 266.335938 C 296.714844 267.292969 296.957031 268.257812 297.152344 269.238281 C 297.347656 270.214844 297.492188 271.199219 297.589844 272.195312 C 297.6875 273.1875 297.738281 274.179688 297.738281 275.179688 Z M 297.738281 275.179688 " fill-opacity="1" fill-rule="nonzero"/><g mask="url(#7605fcba7b)"><g transform="matrix(1, 0, 0, 1, 87, 93)"><g clip-path="url(#0ee5eddb6f)"><g clip-path="url(#bb29182e49)"><path fill="#000000" d="M 177.457031 0.675781 C 204.21875 3.9375 205.597656 34.644531 203.96875 58.460938 C 202.339844 82.277344 138.789062 70.117188 140.605469 55.140625 C 142.800781 36.777344 150.632812 -2.582031 177.457031 0.675781 Z M 177.457031 0.675781 " fill-opacity="1" fill-rule="nonzero"/></g><g clip-path="url(#5e57c75b00)"><path fill="#000000" d="M 20.835938 9.011719 C -4.859375 17.285156 -0.347656 47.617188 5.796875 70.746094 C 11.9375 93.871094 71.980469 69.867188 67.339844 55.515625 C 61.636719 37.90625 46.53125 0.738281 20.835938 9.011719 Z M 20.835938 9.011719 " fill-opacity="1" fill-rule="nonzero"/></g></g></g></g><path fill="#000000" d="M 314.660156 167.757812 C 318.484375 159.046875 339.164062 108.71875 320.800781 73.808594 C 312.089844 57.261719 295.792969 46.859375 272.480469 42.910156 C 252.238281 39.527344 235.191406 43.664062 221.777344 55.195312 C 198.210938 75.625 191.507812 113.667969 189.625 135.792969 C 188.246094 129.964844 186.367188 123.070312 183.859375 115.738281 C 172.453125 82.707031 156.597656 67.480469 145.378906 60.460938 C 128.832031 50.242188 109.214844 49.054688 87.03125 56.949219 C 68.039062 63.78125 55.191406 75.4375 48.859375 91.734375 C 34.949219 127.457031 56.570312 173.460938 60.519531 181.292969 C 55.628906 187.8125 29.808594 225.101562 38.207031 270.980469 C 42.90625 296.613281 61.082031 316.605469 90.726562 328.765625 C 114.417969 338.480469 144.941406 343.367188 181.730469 343.367188 C 192.320312 343.367188 203.414062 342.992188 215.070312 342.175781 C 259.757812 339.042969 293.726562 329.453125 316.101562 313.722656 C 338.414062 298.054688 349.820312 275.804688 350.007812 247.726562 C 350.195312 206.175781 320.488281 173.710938 314.660156 167.757812 Z M 313.84375 310.589844 C 292.097656 325.945312 258.753906 335.28125 214.820312 338.355469 C 163.429688 341.925781 122.1875 337.539062 92.230469 325.253906 C 63.464844 313.410156 46.542969 294.984375 42.09375 270.351562 C 33.191406 221.78125 64.027344 183.175781 64.339844 182.796875 C 64.84375 182.171875 64.90625 181.355469 64.53125 180.667969 C 64.277344 180.164062 38.144531 129.902344 52.496094 93.175781 C 58.386719 77.945312 70.421875 67.039062 88.28125 60.648438 C 97.496094 57.324219 106.269531 55.695312 114.480469 55.695312 C 125.007812 55.695312 134.597656 58.390625 143.308594 63.78125 C 154.027344 70.425781 169.132812 85.027344 180.164062 116.929688 C 186.804688 136.167969 188.875 152.777344 188.875 152.902344 C 189 153.90625 189.875 154.65625 190.941406 154.59375 C 191.945312 154.53125 192.757812 153.65625 192.757812 152.652344 C 192.757812 152.464844 192.507812 135.855469 196.269531 115.863281 C 202.535156 82.707031 215.007812 66.164062 224.347656 58.140625 C 236.820312 47.359375 252.800781 43.539062 271.855469 46.734375 C 293.914062 50.433594 309.269531 60.144531 317.417969 75.625 C 327.195312 94.242188 324.875 118.121094 321.175781 134.851562 C 317.167969 153.152344 310.648438 167.253906 310.585938 167.378906 C 310.210938 168.132812 310.398438 169.011719 311.023438 169.574219 C 311.402344 169.886719 346.371094 203.605469 346.058594 247.726562 C 345.933594 274.488281 335.089844 295.671875 313.84375 310.589844 Z M 313.84375 310.589844 " fill-opacity="1" fill-rule="nonzero"/><path fill="#000000" d="M 172.191406 251.296875 C 172.226562 252.101562 172.195312 252.902344 172.09375 253.699219 C 171.992188 254.496094 171.820312 255.273438 171.585938 256.027344 C 171.347656 256.785156 171.046875 257.507812 170.683594 258.199219 C 170.316406 258.886719 169.898438 259.527344 169.421875 260.121094 C 168.945312 260.710938 168.421875 261.246094 167.851562 261.722656 C 167.28125 262.199219 166.675781 262.605469 166.03125 262.941406 C 165.390625 263.28125 164.722656 263.546875 164.03125 263.738281 C 163.34375 263.925781 162.640625 264.039062 161.929688 264.070312 C 161.21875 264.105469 160.511719 264.058594 159.808594 263.933594 C 159.101562 263.808594 158.414062 263.609375 157.742188 263.328125 C 157.070312 263.050781 156.429688 262.703125 155.816406 262.285156 C 155.207031 261.863281 154.632812 261.378906 154.105469 260.832031 C 153.574219 260.289062 153.097656 259.6875 152.671875 259.039062 C 152.246094 258.386719 151.878906 257.695312 151.570312 256.960938 C 151.265625 256.230469 151.023438 255.472656 150.847656 254.6875 C 150.671875 253.90625 150.566406 253.109375 150.527344 252.304688 C 150.492188 251.5 150.523438 250.699219 150.625 249.902344 C 150.726562 249.105469 150.894531 248.328125 151.132812 247.570312 C 151.371094 246.8125 151.671875 246.089844 152.035156 245.402344 C 152.398438 244.714844 152.820312 244.074219 153.296875 243.480469 C 153.773438 242.886719 154.296875 242.351562 154.867188 241.878906 C 155.4375 241.402344 156.042969 240.996094 156.6875 240.65625 C 157.328125 240.316406 157.996094 240.054688 158.683594 239.863281 C 159.375 239.675781 160.074219 239.5625 160.785156 239.53125 C 161.496094 239.496094 162.207031 239.542969 162.910156 239.667969 C 163.617188 239.792969 164.304688 239.992188 164.976562 240.269531 C 165.644531 240.546875 166.289062 240.898438 166.898438 241.316406 C 167.511719 241.738281 168.082031 242.21875 168.613281 242.765625 C 169.140625 243.3125 169.621094 243.910156 170.046875 244.5625 C 170.472656 245.214844 170.839844 245.90625 171.144531 246.636719 C 171.453125 247.371094 171.695312 248.128906 171.871094 248.910156 C 172.046875 249.695312 172.152344 250.488281 172.191406 251.296875 Z M 172.191406 251.296875 " fill-opacity="1" fill-rule="nonzero"/><path fill="#000000" d="M 250.355469 247.199219 C 250.394531 248.003906 250.363281 248.804688 250.265625 249.601562 C 250.167969 250.398438 250 251.175781 249.765625 251.933594 C 249.53125 252.691406 249.230469 253.414062 248.871094 254.105469 C 248.507812 254.792969 248.089844 255.4375 247.617188 256.03125 C 247.140625 256.625 246.621094 257.164062 246.050781 257.640625 C 245.480469 258.117188 244.875 258.527344 244.234375 258.867188 C 243.59375 259.207031 242.929688 259.476562 242.238281 259.667969 C 241.550781 259.859375 240.847656 259.972656 240.136719 260.007812 C 239.425781 260.042969 238.71875 260 238.011719 259.878906 C 237.308594 259.753906 236.617188 259.558594 235.945312 259.28125 C 235.273438 259.007812 234.632812 258.660156 234.019531 258.242188 C 233.402344 257.824219 232.832031 257.34375 232.300781 256.796875 C 231.769531 256.253906 231.289062 255.65625 230.859375 255.003906 C 230.433594 254.355469 230.0625 253.664062 229.753906 252.933594 C 229.445312 252.203125 229.199219 251.445312 229.023438 250.664062 C 228.84375 249.878906 228.734375 249.085938 228.695312 248.28125 C 228.65625 247.476562 228.683594 246.671875 228.785156 245.875 C 228.882812 245.078125 229.050781 244.300781 229.285156 243.542969 C 229.519531 242.785156 229.816406 242.0625 230.179688 241.371094 C 230.539062 240.683594 230.957031 240.039062 231.433594 239.445312 C 231.90625 238.851562 232.429688 238.316406 232.996094 237.839844 C 233.566406 237.359375 234.171875 236.953125 234.8125 236.609375 C 235.453125 236.269531 236.121094 236.003906 236.808594 235.8125 C 237.5 235.617188 238.199219 235.503906 238.910156 235.46875 C 239.621094 235.433594 240.332031 235.476562 241.035156 235.601562 C 241.742188 235.722656 242.429688 235.921875 243.101562 236.195312 C 243.773438 236.472656 244.417969 236.820312 245.03125 237.238281 C 245.644531 237.65625 246.21875 238.136719 246.75 238.679688 C 247.28125 239.226562 247.757812 239.820312 248.1875 240.472656 C 248.617188 241.121094 248.984375 241.8125 249.292969 242.542969 C 249.605469 243.273438 249.847656 244.03125 250.027344 244.8125 C 250.203125 245.597656 250.3125 246.390625 250.355469 247.199219 Z M 250.355469 247.199219 " fill-opacity="1" fill-rule="nonzero"/><path fill="#000000" d="M 210.808594 265.152344 C 208.804688 266.089844 207.113281 266.214844 205.734375 265.652344 C 204.855469 265.277344 204.230469 264.648438 203.726562 264.023438 C 206.609375 262.582031 208.554688 259.636719 208.492188 258.070312 C 208.367188 255.9375 204.730469 254.496094 200.28125 254.683594 C 195.832031 254.871094 192.320312 256.691406 192.382812 258.820312 C 192.445312 260.449219 194.765625 263.269531 197.835938 264.335938 C 197.335938 265.152344 196.769531 265.714844 195.957031 266.027344 C 194.265625 266.71875 192.320312 266.214844 191.757812 265.964844 C 191.316406 265.464844 190.566406 265.214844 189.875 265.339844 C 188.8125 265.589844 188.183594 266.59375 188.433594 267.660156 C 188.9375 269.789062 192.695312 270.289062 194.136719 270.289062 C 194.199219 270.289062 194.199219 270.289062 194.265625 270.289062 C 195.769531 270.289062 198.964844 269.789062 200.96875 266.71875 C 201.785156 267.660156 202.851562 268.535156 204.167969 269.164062 C 206.609375 270.226562 209.429688 270.039062 212.4375 268.660156 C 213.378906 268.222656 213.816406 267.09375 213.378906 266.089844 C 212.878906 265.089844 211.75 264.710938 210.808594 265.152344 Z M 210.808594 265.152344 " fill-opacity="1" fill-rule="nonzero"/><path fill="#ffffff" d="M 190.453125 162.882812 C 190.453125 162.882812 177.191406 51.460938 98.75 79.425781 C 31.730469 103.328125 76.6875 188.453125 76.6875 188.453125 C 76.6875 188.453125 48.386719 223.21875 56.523438 267.730469 C 64.65625 312.242188 118.25 336.144531 211.898438 329.570312 C 291.566406 324 329.894531 295.976562 330.175781 247.339844 C 330.453125 206.894531 298.476562 176.585938 298.476562 176.585938 C 298.476562 176.585938 343.265625 80.484375 262.765625 67.003906 C 188.390625 54.523438 190.453125 162.882812 190.453125 162.882812 Z M 190.453125 162.882812 " fill-opacity="1" fill-rule="nonzero"/><path fill="#ffd7d7" d="M 168.222656 277.203125 C 168.222656 278.089844 168.179688 278.972656 168.09375 279.855469 C 168.003906 280.738281 167.875 281.613281 167.703125 282.484375 C 167.527344 283.351562 167.3125 284.210938 167.058594 285.0625 C 166.800781 285.910156 166.5 286.742188 166.160156 287.5625 C 165.820312 288.382812 165.445312 289.183594 165.027344 289.964844 C 164.609375 290.746094 164.152344 291.507812 163.660156 292.242188 C 163.167969 292.980469 162.640625 293.691406 162.078125 294.378906 C 161.515625 295.0625 160.917969 295.71875 160.292969 296.347656 C 159.664062 296.972656 159.007812 297.570312 158.324219 298.132812 C 157.636719 298.695312 156.925781 299.222656 156.1875 299.714844 C 155.453125 300.207031 154.691406 300.660156 153.910156 301.078125 C 153.128906 301.496094 152.328125 301.875 151.507812 302.214844 C 150.6875 302.554688 149.855469 302.855469 149.007812 303.109375 C 148.15625 303.367188 147.300781 303.582031 146.429688 303.757812 C 145.558594 303.929688 144.683594 304.058594 143.800781 304.148438 C 142.917969 304.234375 142.035156 304.277344 141.148438 304.277344 C 140.261719 304.277344 139.375 304.234375 138.492188 304.148438 C 137.609375 304.058594 136.734375 303.929688 135.863281 303.757812 C 134.996094 303.582031 134.136719 303.367188 133.289062 303.109375 C 132.4375 302.855469 131.605469 302.554688 130.785156 302.214844 C 129.964844 301.875 129.164062 301.496094 128.382812 301.078125 C 127.601562 300.660156 126.84375 300.207031 126.105469 299.714844 C 125.367188 299.222656 124.65625 298.695312 123.96875 298.132812 C 123.285156 297.570312 122.628906 296.972656 122 296.347656 C 121.375 295.71875 120.78125 295.0625 120.21875 294.378906 C 119.65625 293.691406 119.128906 292.980469 118.632812 292.242188 C 118.140625 291.507812 117.6875 290.746094 117.269531 289.964844 C 116.851562 289.183594 116.472656 288.382812 116.132812 287.5625 C 115.792969 286.742188 115.496094 285.910156 115.238281 285.0625 C 114.980469 284.210938 114.765625 283.351562 114.589844 282.484375 C 114.417969 281.613281 114.289062 280.738281 114.203125 279.855469 C 114.113281 278.972656 114.070312 278.089844 114.070312 277.203125 C 114.070312 276.316406 114.113281 275.429688 114.203125 274.546875 C 114.289062 273.664062 114.417969 272.789062 114.589844 271.917969 C 114.765625 271.050781 114.980469 270.191406 115.238281 269.339844 C 115.496094 268.492188 115.792969 267.660156 116.132812 266.839844 C 116.472656 266.019531 116.851562 265.21875 117.269531 264.4375 C 117.6875 263.65625 118.140625 262.894531 118.632812 262.160156 C 119.128906 261.421875 119.65625 260.710938 120.21875 260.023438 C 120.78125 259.339844 121.375 258.683594 122 258.054688 C 122.628906 257.429688 123.285156 256.835938 123.96875 256.273438 C 124.65625 255.710938 125.367188 255.179688 126.105469 254.6875 C 126.84375 254.195312 127.601562 253.742188 128.382812 253.324219 C 129.164062 252.90625 129.964844 252.527344 130.785156 252.1875 C 131.605469 251.847656 132.4375 251.550781 133.289062 251.292969 C 134.136719 251.035156 134.996094 250.820312 135.863281 250.644531 C 136.734375 250.472656 137.609375 250.34375 138.492188 250.257812 C 139.375 250.167969 140.261719 250.125 141.148438 250.125 C 142.035156 250.125 142.917969 250.167969 143.800781 250.257812 C 144.683594 250.34375 145.558594 250.472656 146.429688 250.644531 C 147.300781 250.820312 148.15625 251.035156 149.007812 251.292969 C 149.855469 251.550781 150.6875 251.847656 151.507812 252.1875 C 152.328125 252.527344 153.128906 252.90625 153.910156 253.324219 C 154.691406 253.742188 155.453125 254.195312 156.1875 254.6875 C 156.925781 255.179688 157.636719 255.710938 158.324219 256.273438 C 159.007812 256.835938 159.664062 257.429688 160.292969 258.054688 C 160.917969 258.683594 161.515625 259.339844 162.078125 260.023438 C 162.640625 260.710938 163.167969 261.421875 163.660156 262.160156 C 164.152344 262.894531 164.609375 263.65625 165.027344 264.4375 C 165.445312 265.21875 165.820312 266.019531 166.160156 266.839844 C 166.5 267.660156 166.800781 268.492188 167.058594 269.339844 C 167.3125 270.191406 167.527344 271.050781 167.703125 271.917969 C 167.875 272.789062 168.003906 273.664062 168.09375 274.546875 C 168.179688 275.429688 168.222656 276.316406 168.222656 277.203125 Z M 168.222656 277.203125 " fill-opacity="1" fill-rule="nonzero"/><path fill="#ffd7d7" d="M 285.496094 271.742188 C 285.496094 272.628906 285.449219 273.511719 285.363281 274.394531 C 285.277344 275.277344 285.148438 276.152344 284.972656 277.023438 C 284.800781 277.894531 284.585938 278.753906 284.328125 279.601562 C 284.070312 280.449219 283.773438 281.285156 283.433594 282.101562 C 283.09375 282.921875 282.714844 283.722656 282.296875 284.503906 C 281.878906 285.285156 281.425781 286.046875 280.929688 286.785156 C 280.4375 287.519531 279.910156 288.234375 279.347656 288.917969 C 278.785156 289.605469 278.191406 290.261719 277.5625 290.886719 C 276.9375 291.515625 276.28125 292.109375 275.59375 292.671875 C 274.910156 293.234375 274.199219 293.761719 273.460938 294.253906 C 272.722656 294.746094 271.964844 295.203125 271.183594 295.621094 C 270.398438 296.039062 269.597656 296.417969 268.78125 296.757812 C 267.960938 297.09375 267.125 297.394531 266.277344 297.652344 C 265.429688 297.910156 264.570312 298.125 263.699219 298.296875 C 262.832031 298.46875 261.957031 298.601562 261.074219 298.6875 C 260.191406 298.773438 259.304688 298.816406 258.417969 298.816406 C 257.53125 298.816406 256.648438 298.773438 255.765625 298.6875 C 254.882812 298.601562 254.007812 298.46875 253.136719 298.296875 C 252.265625 298.125 251.40625 297.910156 250.558594 297.652344 C 249.710938 297.394531 248.875 297.09375 248.058594 296.757812 C 247.238281 296.417969 246.4375 296.039062 245.65625 295.621094 C 244.875 295.203125 244.113281 294.746094 243.375 294.253906 C 242.640625 293.761719 241.925781 293.234375 241.242188 292.671875 C 240.558594 292.109375 239.902344 291.515625 239.273438 290.886719 C 238.644531 290.261719 238.050781 289.605469 237.488281 288.917969 C 236.925781 288.234375 236.398438 287.519531 235.90625 286.785156 C 235.414062 286.046875 234.957031 285.285156 234.539062 284.503906 C 234.121094 283.722656 233.742188 282.921875 233.402344 282.101562 C 233.066406 281.285156 232.765625 280.449219 232.507812 279.601562 C 232.25 278.753906 232.035156 277.894531 231.863281 277.023438 C 231.691406 276.152344 231.558594 275.277344 231.472656 274.394531 C 231.386719 273.511719 231.34375 272.628906 231.34375 271.742188 C 231.34375 270.855469 231.386719 269.96875 231.472656 269.085938 C 231.558594 268.207031 231.691406 267.328125 231.863281 266.460938 C 232.035156 265.589844 232.25 264.730469 232.507812 263.882812 C 232.765625 263.035156 233.066406 262.199219 233.402344 261.378906 C 233.742188 260.5625 234.121094 259.761719 234.539062 258.976562 C 234.957031 258.195312 235.414062 257.4375 235.90625 256.699219 C 236.398438 255.960938 236.925781 255.25 237.488281 254.566406 C 238.050781 253.878906 238.644531 253.222656 239.273438 252.597656 C 239.902344 251.96875 240.558594 251.375 241.242188 250.8125 C 241.925781 250.25 242.640625 249.722656 243.375 249.230469 C 244.113281 248.738281 244.875 248.28125 245.65625 247.863281 C 246.4375 247.445312 247.238281 247.066406 248.058594 246.726562 C 248.875 246.386719 249.710938 246.089844 250.558594 245.832031 C 251.40625 245.574219 252.265625 245.359375 253.136719 245.1875 C 254.007812 245.011719 254.882812 244.882812 255.765625 244.796875 C 256.648438 244.710938 257.53125 244.667969 258.417969 244.667969 C 259.304688 244.667969 260.191406 244.710938 261.074219 244.796875 C 261.957031 244.882812 262.832031 245.011719 263.699219 245.1875 C 264.570312 245.359375 265.429688 245.574219 266.277344 245.832031 C 267.125 246.089844 267.960938 246.386719 268.78125 246.726562 C 269.597656 247.066406 270.398438 247.445312 271.183594 247.863281 C 271.964844 248.28125 272.722656 248.738281 273.460938 249.230469 C 274.199219 249.722656 274.910156 250.25 275.59375 250.8125 C 276.28125 251.375 276.9375 251.96875 277.5625 252.597656 C 278.191406 253.222656 278.785156 253.878906 279.347656 254.566406 C 279.910156 255.25 280.4375 255.960938 280.929688 256.699219 C 281.425781 257.4375 281.878906 258.195312 282.296875 258.976562 C 282.714844 259.761719 283.09375 260.5625 283.433594 261.378906 C 283.773438 262.199219 284.070312 263.035156 284.328125 263.882812 C 284.585938 264.730469 284.800781 265.589844 284.972656 266.460938 C 285.148438 267.328125 285.277344 268.207031 285.363281 269.085938 C 285.449219 269.96875 285.496094 270.855469 285.496094 271.742188 Z M 285.496094 271.742188 " fill-opacity="1" fill-rule="nonzero"/><g mask="url(#801200001b)"><g transform="matrix(1, 0, 0, 1, 98, 109)"><g clip-path="url(#907bd70af2)"><path fill="#ffd7d7" d="M 157.910156 1.402344 C 181.699219 4.300781 182.925781 31.597656 181.476562 52.769531 C 180.027344 73.9375 123.539062 63.128906 125.152344 49.816406 C 127.105469 33.492188 134.066406 -1.496094 157.910156 1.402344 Z M 157.910156 1.402344 " fill-opacity="1" fill-rule="nonzero"/><g clip-path="url(#6032071a17)"><path fill="#ffd7d7" d="M 18.691406 8.8125 C -4.152344 16.164062 -0.140625 43.128906 5.320312 63.6875 C 10.777344 84.246094 64.148438 62.90625 60.027344 50.148438 C 54.957031 34.496094 41.53125 1.457031 18.691406 8.8125 Z M 18.691406 8.8125 " fill-opacity="1" fill-rule="nonzero"/></g></g></g></g><path fill="#000000" d="M 300.535156 176.253906 C 303.933594 168.507812 322.320312 123.773438 305.996094 92.742188 C 298.253906 78.035156 283.765625 68.785156 263.042969 65.277344 C 245.046875 62.269531 229.894531 65.945312 217.972656 76.195312 C 197.023438 94.359375 191.0625 128.175781 189.394531 147.839844 C 188.167969 142.660156 186.496094 136.53125 184.265625 130.011719 C 174.128906 100.652344 160.03125 87.113281 150.0625 80.875 C 135.351562 71.792969 117.914062 70.734375 98.195312 77.753906 C 81.3125 83.828125 69.890625 94.191406 64.265625 108.675781 C 51.898438 140.429688 71.117188 181.324219 74.628906 188.285156 C 70.28125 194.082031 47.328125 227.226562 54.792969 268.007812 C 58.972656 290.792969 75.128906 308.566406 101.480469 319.375 C 122.539062 328.011719 149.671875 332.355469 182.375 332.355469 C 191.789062 332.355469 201.648438 332.019531 212.011719 331.296875 C 251.734375 328.511719 281.929688 319.988281 301.816406 306.003906 C 321.652344 292.078125 331.789062 272.296875 331.957031 247.339844 C 332.125 210.402344 305.71875 181.546875 300.535156 176.253906 Z M 299.8125 303.21875 C 280.480469 316.867188 250.84375 325.167969 211.789062 327.898438 C 166.105469 331.074219 129.449219 327.175781 102.816406 316.253906 C 77.246094 305.726562 62.203125 289.347656 58.25 267.453125 C 50.335938 224.277344 77.746094 189.957031 78.027344 189.625 C 78.472656 189.066406 78.527344 188.34375 78.195312 187.730469 C 77.96875 187.285156 54.738281 142.601562 67.496094 109.957031 C 72.734375 96.417969 83.429688 86.726562 99.308594 81.042969 C 107.496094 78.089844 115.296875 76.640625 122.59375 76.640625 C 131.953125 76.640625 140.476562 79.035156 148.222656 83.828125 C 157.75 89.734375 171.175781 102.714844 180.980469 131.070312 C 186.886719 148.175781 188.722656 162.9375 188.722656 163.050781 C 188.835938 163.941406 189.617188 164.609375 190.5625 164.554688 C 191.453125 164.496094 192.179688 163.71875 192.179688 162.828125 C 192.179688 162.660156 191.957031 147.894531 195.296875 130.125 C 200.871094 100.652344 211.957031 85.945312 220.257812 78.8125 C 231.34375 69.230469 245.550781 65.832031 262.484375 68.675781 C 282.097656 71.960938 295.746094 80.597656 302.988281 94.359375 C 311.679688 110.902344 309.617188 132.128906 306.332031 147.003906 C 302.765625 163.273438 296.972656 175.808594 296.914062 175.917969 C 296.582031 176.585938 296.746094 177.367188 297.304688 177.867188 C 297.640625 178.148438 328.726562 208.121094 328.449219 247.339844 C 328.335938 271.128906 318.699219 289.960938 299.8125 303.21875 Z M 299.8125 303.21875 " fill-opacity="1" fill-rule="nonzero"/><path fill="#000000" d="M 173.894531 250.511719 C 173.925781 251.226562 173.898438 251.9375 173.808594 252.648438 C 173.71875 253.355469 173.566406 254.046875 173.355469 254.71875 C 173.144531 255.390625 172.875 256.035156 172.554688 256.644531 C 172.230469 257.257812 171.855469 257.828125 171.433594 258.355469 C 171.007812 258.882812 170.542969 259.355469 170.039062 259.78125 C 169.53125 260.203125 168.992188 260.5625 168.421875 260.863281 C 167.847656 261.167969 167.257812 261.402344 166.644531 261.570312 C 166.03125 261.738281 165.40625 261.835938 164.773438 261.867188 C 164.140625 261.898438 163.511719 261.855469 162.886719 261.746094 C 162.261719 261.632812 161.648438 261.457031 161.050781 261.207031 C 160.453125 260.960938 159.882812 260.652344 159.339844 260.277344 C 158.796875 259.90625 158.289062 259.476562 157.816406 258.988281 C 157.347656 258.503906 156.921875 257.972656 156.542969 257.394531 C 156.164062 256.8125 155.839844 256.199219 155.566406 255.546875 C 155.292969 254.898438 155.078125 254.226562 154.921875 253.527344 C 154.765625 252.832031 154.671875 252.125 154.636719 251.410156 C 154.605469 250.691406 154.632812 249.980469 154.722656 249.273438 C 154.816406 248.5625 154.964844 247.875 155.175781 247.199219 C 155.386719 246.527344 155.65625 245.886719 155.976562 245.273438 C 156.300781 244.660156 156.675781 244.09375 157.097656 243.566406 C 157.523438 243.039062 157.988281 242.5625 158.496094 242.140625 C 159 241.71875 159.539062 241.355469 160.113281 241.054688 C 160.683594 240.753906 161.273438 240.519531 161.890625 240.351562 C 162.503906 240.179688 163.125 240.082031 163.757812 240.050781 C 164.390625 240.023438 165.019531 240.0625 165.644531 240.175781 C 166.273438 240.285156 166.882812 240.464844 167.480469 240.710938 C 168.078125 240.957031 168.648438 241.269531 169.191406 241.640625 C 169.734375 242.015625 170.242188 242.445312 170.714844 242.929688 C 171.183594 243.414062 171.609375 243.949219 171.988281 244.527344 C 172.367188 245.105469 172.691406 245.71875 172.964844 246.371094 C 173.238281 247.019531 173.453125 247.695312 173.609375 248.390625 C 173.765625 249.089844 173.859375 249.792969 173.894531 250.511719 Z M 173.894531 250.511719 " fill-opacity="1" fill-rule="nonzero"/><path fill="#000000" d="M 243.375 246.867188 C 243.410156 247.585938 243.382812 248.296875 243.296875 249.003906 C 243.207031 249.714844 243.058594 250.40625 242.851562 251.078125 C 242.640625 251.753906 242.375 252.394531 242.054688 253.007812 C 241.734375 253.621094 241.363281 254.191406 240.941406 254.722656 C 240.519531 255.25 240.054688 255.726562 239.550781 256.152344 C 239.042969 256.574219 238.503906 256.9375 237.933594 257.242188 C 237.363281 257.546875 236.773438 257.78125 236.160156 257.953125 C 235.546875 258.125 234.925781 258.222656 234.292969 258.257812 C 233.660156 258.289062 233.03125 258.25 232.40625 258.140625 C 231.777344 258.03125 231.164062 257.855469 230.566406 257.609375 C 229.96875 257.363281 229.398438 257.058594 228.851562 256.683594 C 228.308594 256.3125 227.796875 255.886719 227.328125 255.402344 C 226.855469 254.917969 226.425781 254.386719 226.046875 253.808594 C 225.664062 253.230469 225.335938 252.617188 225.0625 251.96875 C 224.789062 251.320312 224.570312 250.644531 224.414062 249.949219 C 224.253906 249.253906 224.15625 248.546875 224.121094 247.832031 C 224.085938 247.113281 224.113281 246.402344 224.199219 245.695312 C 224.289062 244.984375 224.4375 244.292969 224.644531 243.621094 C 224.855469 242.945312 225.121094 242.304688 225.441406 241.691406 C 225.761719 241.078125 226.132812 240.507812 226.554688 239.976562 C 226.976562 239.449219 227.441406 238.972656 227.945312 238.550781 C 228.453125 238.125 228.988281 237.761719 229.558594 237.457031 C 230.128906 237.15625 230.722656 236.917969 231.335938 236.746094 C 231.949219 236.578125 232.570312 236.476562 233.203125 236.445312 C 233.835938 236.410156 234.464844 236.449219 235.089844 236.558594 C 235.71875 236.667969 236.332031 236.84375 236.929688 237.089844 C 237.527344 237.335938 238.097656 237.644531 238.644531 238.015625 C 239.1875 238.386719 239.695312 238.8125 240.167969 239.296875 C 240.640625 239.78125 241.066406 240.3125 241.449219 240.890625 C 241.828125 241.46875 242.15625 242.082031 242.433594 242.730469 C 242.707031 243.382812 242.925781 244.054688 243.082031 244.75 C 243.242188 245.445312 243.339844 246.152344 243.375 246.867188 Z M 243.375 246.867188 " fill-opacity="1" fill-rule="nonzero"/><path fill="#000000" d="M 208.222656 262.828125 C 206.441406 263.664062 204.9375 263.773438 203.710938 263.273438 C 202.929688 262.9375 202.375 262.382812 201.925781 261.824219 C 204.492188 260.542969 206.21875 257.925781 206.160156 256.53125 C 206.050781 254.636719 202.820312 253.355469 198.863281 253.523438 C 194.90625 253.691406 191.789062 255.308594 191.84375 257.199219 C 191.898438 258.648438 193.960938 261.15625 196.691406 262.105469 C 196.246094 262.828125 195.742188 263.328125 195.019531 263.609375 C 193.515625 264.21875 191.789062 263.773438 191.285156 263.550781 C 190.898438 263.105469 190.226562 262.882812 189.617188 262.996094 C 188.667969 263.21875 188.113281 264.109375 188.335938 265.054688 C 188.78125 266.949219 192.121094 267.394531 193.402344 267.394531 C 193.460938 267.394531 193.460938 267.394531 193.515625 267.394531 C 194.851562 267.394531 197.695312 266.949219 199.476562 264.21875 C 200.199219 265.054688 201.148438 265.835938 202.316406 266.394531 C 204.492188 267.339844 206.996094 267.171875 209.671875 265.949219 C 210.507812 265.558594 210.898438 264.554688 210.507812 263.664062 C 210.0625 262.773438 209.058594 262.4375 208.222656 262.828125 Z M 208.222656 262.828125 " fill-opacity="1" fill-rule="nonzero"/></svg>